<svg width="209" height="33" viewBox="0 0 209 33" fill="none" xmlns="http://www.w3.org/2000/svg">
<path d="M50 21.2143V24.75C50 26.0538 48.8828 27.1071 47.5 27.1071H44.8984C44.3047 30.4513 41.2187 33 37.5 33C33.7813 33 30.6953 30.4513 30.1016 27.1071H19.8984C19.3047 30.4513 16.2187 33 12.5 33C8.78125 33 5.69844 30.4513 5.10391 27.1071H2.5C1.11953 27.1071 0 26.0538 0 24.75V16.5C0 14.5038 1.31328 12.8022 3.16875 12.1098L6.42187 4.44542C7.56094 1.76049 10.3203 0 13.3828 0H27.5938C29.875 0 31.9609 0.976741 33.4531 2.654L41.2656 11.8594C46.1875 12.3824 50 16.4116 50 21.148V21.2143ZM13.3828 4.71429C12.3594 4.71429 11.4453 5.23728 11.0625 6.19487L8.69531 11.7857H17.5V4.71429H13.3828ZM21.25 11.7857H34.7969L29.5469 5.59821C29.0781 5.03839 28.2891 4.71429 27.5938 4.71429H21.25V11.7857ZM41.0391 27.1071C41.1719 26.6725 41.25 26.3411 41.25 25.9286C41.25 23.9766 39.5703 22.3929 37.5 22.3929C35.4297 22.3929 33.75 23.9766 33.75 25.9286C33.75 26.3411 33.7578 26.6725 33.9609 27.1071C34.4766 28.4772 35.8672 29.4643 37.5 29.4643C39.1328 29.4643 40.5234 28.4772 41.0391 27.1071ZM16.0391 27.1071C16.1719 26.6725 16.25 26.3411 16.25 25.9286C16.25 23.9766 14.5703 22.3929 12.5 22.3929C10.4297 22.3929 8.75 23.9766 8.75 25.9286C8.75 26.3411 8.75781 26.6725 8.96094 27.1071C9.47656 28.4772 10.8672 29.4643 12.5 29.4643C14.1328 29.4643 15.5234 28.4772 16.0391 27.1071Z" fill="#007DFC"/>
<path d="M60.9515 27V6.63636H68.9856C70.5235 6.63636 71.836 6.91146 72.9231 7.46165C74.0169 8.00521 74.8488 8.77746 75.4189 9.77841C75.9956 10.7727 76.2839 11.9427 76.2839 13.2884C76.2839 14.6406 75.9922 15.804 75.4089 16.7784C74.8256 17.7462 73.9804 18.4886 72.8734 19.0057C71.773 19.5227 70.4406 19.7812 68.8762 19.7812H63.497V16.321H68.1802C69.0022 16.321 69.685 16.2083 70.2285 15.983C70.7721 15.7576 71.1764 15.4195 71.4416 14.9688C71.7134 14.518 71.8493 13.9579 71.8493 13.2884C71.8493 12.6122 71.7134 12.0421 71.4416 11.5781C71.1764 11.1141 70.7688 10.7628 70.2186 10.5241C69.675 10.2789 68.9889 10.1562 68.1603 10.1562H65.2569V27H60.9515ZM71.9487 17.733L77.0098 27H72.2569L67.3052 17.733H71.9487ZM85.9611 27.2983C84.3901 27.2983 83.0378 26.9801 81.9043 26.3438C80.7774 25.7008 79.909 24.7926 79.2992 23.6193C78.6893 22.4394 78.3844 21.044 78.3844 19.4332C78.3844 17.8622 78.6893 16.4834 79.2992 15.2969C79.909 14.1103 80.7675 13.1856 81.8745 12.5227C82.9881 11.8598 84.294 11.5284 85.7921 11.5284C86.7997 11.5284 87.7376 11.6908 88.606 12.0156C89.481 12.3338 90.2433 12.8144 90.8929 13.4574C91.5492 14.1004 92.0596 14.9091 92.4242 15.8835C92.7888 16.8513 92.9711 17.9848 92.9711 19.2841V20.4474H80.0748V17.8224H88.9838C88.9838 17.2126 88.8513 16.6723 88.5861 16.2017C88.321 15.7311 87.9531 15.3632 87.4824 15.098C87.0184 14.8262 86.4782 14.6903 85.8617 14.6903C85.2187 14.6903 84.6486 14.8395 84.1515 15.1378C83.6609 15.4295 83.2765 15.8239 82.998 16.321C82.7196 16.8116 82.5771 17.3584 82.5705 17.9616V20.4574C82.5705 21.2131 82.7097 21.866 82.9881 22.4162C83.2731 22.9664 83.6742 23.3906 84.1912 23.6889C84.7083 23.9872 85.3214 24.1364 86.0307 24.1364C86.5014 24.1364 86.9322 24.0701 87.3233 23.9375C87.7144 23.8049 88.0492 23.6061 88.3276 23.3409C88.606 23.0758 88.8181 22.7509 88.964 22.3665L92.8816 22.625C92.6827 23.5663 92.275 24.3883 91.6586 25.0909C91.0487 25.7869 90.2599 26.3305 89.2921 26.7216C88.3309 27.1061 87.2206 27.2983 85.9611 27.2983ZM99.9711 18.1705V27H95.7353V11.7273H99.7722V14.4219H99.9512C100.289 13.5336 100.856 12.831 101.651 12.3139C102.447 11.7902 103.411 11.5284 104.545 11.5284C105.606 11.5284 106.53 11.7604 107.319 12.2244C108.108 12.6884 108.721 13.3513 109.159 14.2131C109.596 15.0682 109.815 16.089 109.815 17.2756V27H105.579V18.0312C105.586 17.0966 105.347 16.3674 104.863 15.8438C104.379 15.3134 103.713 15.0483 102.865 15.0483C102.294 15.0483 101.791 15.1709 101.353 15.4162C100.922 15.6615 100.584 16.0194 100.339 16.4901C100.1 16.9541 99.9777 17.5142 99.9711 18.1705ZM121.277 11.7273V14.9091H112.079V11.7273H121.277ZM114.167 8.06818H118.403V22.3068C118.403 22.6979 118.463 23.0028 118.582 23.2216C118.702 23.4337 118.867 23.5829 119.079 23.669C119.298 23.7552 119.55 23.7983 119.835 23.7983C120.034 23.7983 120.233 23.7817 120.432 23.7486C120.631 23.7088 120.783 23.679 120.889 23.6591L121.555 26.8111C121.343 26.8774 121.045 26.9536 120.66 27.0398C120.276 27.1326 119.809 27.1889 119.258 27.2088C118.238 27.2486 117.343 27.1127 116.574 26.8011C115.811 26.4896 115.218 26.0057 114.794 25.3494C114.37 24.6932 114.161 23.8646 114.167 22.8636V8.06818Z" fill="#020617"/>
<path d="M128.59 27L122.763 6.63636H127.466L130.837 20.7855H131.006L134.725 6.63636H138.752L142.461 20.8153H142.64L146.01 6.63636H150.714L144.887 27H140.691L136.813 13.6861H136.654L132.786 27H128.59ZM157.174 18.1705V27H152.938V6.63636H157.055V14.4219H157.234C157.579 13.5204 158.135 12.8144 158.904 12.304C159.673 11.7869 160.638 11.5284 161.798 11.5284C162.858 11.5284 163.783 11.7604 164.572 12.2244C165.367 12.6818 165.984 13.3414 166.421 14.2031C166.865 15.0582 167.084 16.0824 167.078 17.2756V27H162.842V18.0312C162.848 17.09 162.61 16.3575 162.126 15.8338C161.649 15.3101 160.979 15.0483 160.117 15.0483C159.541 15.0483 159.03 15.1709 158.586 15.4162C158.149 15.6615 157.804 16.0194 157.552 16.4901C157.307 16.9541 157.181 17.5142 157.174 18.1705ZM177.371 27.2983C175.8 27.2983 174.448 26.9801 173.314 26.3438C172.188 25.7008 171.319 24.7926 170.709 23.6193C170.099 22.4394 169.795 21.044 169.795 19.4332C169.795 17.8622 170.099 16.4834 170.709 15.2969C171.319 14.1103 172.178 13.1856 173.285 12.5227C174.398 11.8598 175.704 11.5284 177.202 11.5284C178.21 11.5284 179.148 11.6908 180.016 12.0156C180.891 12.3338 181.653 12.8144 182.303 13.4574C182.959 14.1004 183.47 14.9091 183.834 15.8835C184.199 16.8513 184.381 17.9848 184.381 19.2841V20.4474H171.485V17.8224H180.394C180.394 17.2126 180.261 16.6723 179.996 16.2017C179.731 15.7311 179.363 15.3632 178.893 15.098C178.429 14.8262 177.888 14.6903 177.272 14.6903C176.629 14.6903 176.059 14.8395 175.562 15.1378C175.071 15.4295 174.687 15.8239 174.408 16.321C174.13 16.8116 173.987 17.3584 173.981 17.9616V20.4574C173.981 21.2131 174.12 21.866 174.398 22.4162C174.683 22.9664 175.084 23.3906 175.601 23.6889C176.118 23.9872 176.732 24.1364 177.441 24.1364C177.912 24.1364 178.342 24.0701 178.733 23.9375C179.125 23.8049 179.459 23.6061 179.738 23.3409C180.016 23.0758 180.228 22.7509 180.374 22.3665L184.292 22.625C184.093 23.5663 183.685 24.3883 183.069 25.0909C182.459 25.7869 181.67 26.3305 180.702 26.7216C179.741 27.1061 178.631 27.2983 177.371 27.2983ZM194.106 27.2983C192.535 27.2983 191.182 26.9801 190.049 26.3438C188.922 25.7008 188.054 24.7926 187.444 23.6193C186.834 22.4394 186.529 21.044 186.529 19.4332C186.529 17.8622 186.834 16.4834 187.444 15.2969C188.054 14.1103 188.912 13.1856 190.019 12.5227C191.133 11.8598 192.439 11.5284 193.937 11.5284C194.944 11.5284 195.882 11.6908 196.751 12.0156C197.626 12.3338 198.388 12.8144 199.037 13.4574C199.694 14.1004 200.204 14.9091 200.569 15.8835C200.933 16.8513 201.116 17.9848 201.116 19.2841V20.4474H188.219V17.8224H197.128C197.128 17.2126 196.996 16.6723 196.731 16.2017C196.465 15.7311 196.098 15.3632 195.627 15.098C195.163 14.8262 194.623 14.6903 194.006 14.6903C193.363 14.6903 192.793 14.8395 192.296 15.1378C191.805 15.4295 191.421 15.8239 191.143 16.321C190.864 16.8116 190.722 17.3584 190.715 17.9616V20.4574C190.715 21.2131 190.854 21.866 191.133 22.4162C191.418 22.9664 191.819 23.3906 192.336 23.6889C192.853 23.9872 193.466 24.1364 194.175 24.1364C194.646 24.1364 195.077 24.0701 195.468 23.9375C195.859 23.8049 196.194 23.6061 196.472 23.3409C196.751 23.0758 196.963 22.7509 197.108 22.3665L201.026 22.625C200.827 23.5663 200.42 24.3883 199.803 25.0909C199.193 25.7869 198.404 26.3305 197.437 26.7216C196.475 27.1061 195.365 27.2983 194.106 27.2983ZM208.116 6.63636V27H203.88V6.63636H208.116Z" fill="#007DFC"/>
</svg>
