<svg xmlns="http://www.w3.org/2000/svg" viewBox="0 0 24 24" id="car" fill="#007DFC"><path d="M22,8.84l-.14-.34h0a1.5,1.5,0,1,0,0-3H20.63L19.51,2.71A2.51,2.51,0,0,0,17.37,1.5H6.63A2.53,2.53,0,0,0,4.45,2.79L3.36,5.5H2.12a1.5,1.5,0,1,0,0,3h0L2,8.84A3.5,3.5,0,0,0,0,12v5a2.5,2.5,0,0,0,2,2.45V21a1.5,1.5,0,0,0,1.5,1.5h1A1.5,1.5,0,0,0,6,21V19.5H18V21a1.5,1.5,0,0,0,1.5,1.5h1A1.5,1.5,0,0,0,22,21V19.45A2.5,2.5,0,0,0,24,17V12A3.5,3.5,0,0,0,22,8.84ZM21.88,6.5a.5.5,0,0,1,.45.28.5.5,0,0,1-.45.72h-.45l-.4-1ZM3.36,8.2h0l.8-2h0l1.18-3A1.51,1.51,0,0,1,6.63,2.5H17.37a1.5,1.5,0,0,1,1.25.66L20.76,8.5H3.24ZM2.12,7.5a.5.5,0,1,1,0-1H3l-.4,1ZM5,21a.5.5,0,0,1-.5.5h-1A.5.5,0,0,1,3,21V19.5H5Zm2.61-2.5.58-3h7.64l.58,3ZM21,21a.5.5,0,0,1-.5.5h-1A.5.5,0,0,1,19,21V19.5h2Zm2-4a1.5,1.5,0,0,1-1.5,1.5H17.41l-.69-3.59a.5.5,0,0,0-.49-.41H7.77a.5.5,0,0,0-.49.41L6.59,18.5H2.5A1.5,1.5,0,0,1,1,17V12A2.5,2.5,0,0,1,3.5,9.5h17A2.5,2.5,0,0,1,23,12ZM6.5,10.5h-3A1.5,1.5,0,0,0,2,12v1a.5.5,0,0,0,.5.5h4A.5.5,0,0,0,7,13V11A.5.5,0,0,0,6.5,10.5Zm-.5,2H3V12a.5.5,0,0,1,.5-.5H6Zm-2.5,2A1.5,1.5,0,1,0,5,16,1.5,1.5,0,0,0,3.5,14.5Zm0,2A.5.5,0,1,1,4,16,.5.5,0,0,1,3.5,16.5Zm11-5h-4a.5.5,0,0,0,0,1h4a.5.5,0,0,0,0-1Zm6-1h-3a.5.5,0,0,0-.5.5v2a.5.5,0,0,0,.5.5h4A.5.5,0,0,0,22,13V12A1.5,1.5,0,0,0,20.5,10.5Zm.5,2H18v-1h2.5a.5.5,0,0,1,.5.5Zm-.5,2A1.5,1.5,0,1,0,22,16,1.5,1.5,0,0,0,20.5,14.5Zm0,2A.5.5,0,1,1,21,16,.5.5,0,0,1,20.5,16.5Z"></path></svg>