<svg xmlns="http://www.w3.org/2000/svg" xmlns:xlink="http://www.w3.org/1999/xlink" version="1.1" x="0px" y="0px" viewBox="0 0 659.535 263.53249999999997" fill="#007DFC" style="enable-background:new 0 0 659.535 210.826;" xml:space="preserve"><g><path d="M512.638,72.227c0,0-32.135-50.829-37.106-56.834c-4.976-6.003-52.872-11.637-99.509-11.623   c-46.643,0.015-66.506,5.67-77.999,10.62c-11.492,4.949-134.866,72.103-140.234,75.281c-5.367,3.18-14.818,31.798-14.818,31.798   l0.345,24.37l-9.054,0.003c-4.68,0.001-10.25,3.802-12.431,8.482l-2.965,6.362c-2.182,4.682-0.153,8.477,4.529,8.474l36.787-0.011   c13.315-24.687,42.979-44.169,68.137-44.177c25.154-0.007,36.67,19.46,26.974,44.147l210.6-0.065   c13.316-24.688,42.982-44.169,68.135-44.177c25.158-0.007,36.674,19.46,26.979,44.148l53.849-0.016   c4.685-0.002,10.252-3.799,12.434-8.481l2.965-6.362c2.181-4.68,0.152-8.478-4.532-8.477l-10.387,0.003   c11.999-13.807,25.172-29.448,27.254-33.916C653.309,88.778,512.638,72.227,512.638,72.227z M233.352,71.47   c28.617-21.006,58.622-42.276,65.505-45.877c8.72-2.97,16.449-8.359,62.127-9.038l-25.575,54.883L233.352,71.47z M348.912,71.434   l25.599-54.932c43.921,0.325,82.655,5.569,88.754,9.236c2.618,3.706,15.501,23.578,25.74,45.653L348.912,71.434z"/><path d="M223.875,134.515c-19.886,0.006-43.297,15.217-54.128,34.633c-0.65,1.164-1.261,2.343-1.816,3.533   c-9.819,21.072-0.697,38.15,20.384,38.144c21.074-0.007,46.117-17.095,55.937-38.167c0.556-1.192,1.044-2.369,1.479-3.533   C252.993,149.71,243.756,134.51,223.875,134.515z M220.81,171.251c-0.169,0.464-0.364,0.937-0.586,1.413   c-3.637,7.805-12.914,14.135-20.718,14.137c-7.806,0.003-11.185-6.324-7.548-14.128c0.222-0.476,0.465-0.948,0.729-1.413   c4.037-7.142,12.661-12.72,19.99-12.722C220.004,158.535,223.431,164.109,220.81,171.251z"/><path d="M529.584,134.42c-19.886,0.006-43.293,15.217-54.125,34.633c-0.647,1.164-1.261,2.343-1.817,3.533   c-9.819,21.072-0.696,38.15,20.38,38.144c14.612-0.004,31.119-8.225,43.15-20.284l7.317-8.651c2.118-2.962,3.987-6.042,5.474-9.232   c0.555-1.192,1.043-2.37,1.48-3.534C558.706,149.614,549.466,134.415,529.584,134.42z M526.523,171.157   c-0.169,0.464-0.362,0.936-0.584,1.412c-3.638,7.806-12.914,14.135-20.721,14.137c-7.806,0.003-11.184-6.322-7.547-14.128   c0.222-0.476,0.467-0.948,0.731-1.413c4.036-7.142,12.659-12.721,19.987-12.723C525.718,158.44,529.142,164.014,526.523,171.157z"/><path d="M444.113,27.932c-11.018,0-24.114,8.931-29.251,19.949c-5.138,11.018-0.371,19.949,10.647,19.949   s24.114-8.931,29.251-19.949C459.897,36.863,455.131,27.932,444.113,27.932z"/><rect x="67.638" y="23.299" width="169.58" height="4.097"/><rect x="107.349" y="6.739" width="169.58" height="4.097"/><rect x="4.067" y="39.858" width="199.058" height="4.097"/><rect x="41.144" y="56.418" width="129.353" height="4.097"/><rect y="72.978" width="129.353" height="4.097"/><path d="M63.157,157.026l0.936,6.075l11.319-1.802c2.401,10.083-3.21,20.526-13.216,23.941   c-10.213,3.483-21.262-1.632-25.334-11.464c0.239-0.074,0.478-0.143,0.716-0.224c4.968-1.695,9.056-4.796,11.978-8.706   c-1.943,1.647-4.208,2.979-6.765,3.852c-10.951,3.739-22.856-2.108-26.596-13.059c-3.736-10.95,2.113-22.858,13.062-26.595   c5.2-1.774,10.607-1.365,15.262,0.704c-2.256-1.688-4.782-2.985-7.464-3.837c2.173-5.166,6.44-9.424,12.16-11.376   c10.628-3.63,22.189,2.048,25.817,12.678c1.261,3.694,1.376,7.494,0.572,11.04l-11.481-1.85l-0.949,6.075l20.969,2.282   l27.071,2.947l0.395-3.652l-29.903-4.819c1.511-4.973,1.538-10.448-0.268-15.742c-4.583-13.426-19.183-20.599-32.612-16.016   c-8.33,2.842-14.248,9.542-16.45,17.425c-3.597-0.421-7.341-0.067-10.997,1.181c-13.109,4.474-20.11,18.725-15.637,31.832   c3.961,11.608,15.586,18.418,27.296,16.725c0.192,0.847,0.427,1.692,0.714,2.532c4.364,12.789,18.267,19.617,31.058,15.255   c12.788-4.366,19.618-18.271,15.254-31.06c-0.088-0.258-0.186-0.51-0.282-0.762l31.811-5.063l-0.388-3.646l-26.45,2.825   L63.157,157.026z"/><path d="M487.089,15.878c0.021,0.001,0.044,0.002,0.065,0.002c0.522,0,0.963-0.406,0.997-0.936   c0.184-2.843-0.504-5.136-2.046-6.815c-2.384-2.598-5.918-2.701-6.067-2.704c-0.579,0.015-1.008,0.427-1.021,0.979   c-0.012,0.552,0.427,1.009,0.979,1.021c0.027,0,2.822,0.081,4.635,2.056c1.158,1.263,1.671,3.058,1.523,5.335   C486.12,15.367,486.537,15.842,487.089,15.878z"/><path d="M492.521,15.628c0.034,0.003,0.069,0.005,0.104,0.005c0.506,0,0.94-0.383,0.994-0.897c0.44-4.254-0.44-7.73-2.616-10.333   c-3.313-3.961-8.398-4.384-8.613-4.399c-0.545-0.045-1.03,0.372-1.071,0.923s0.372,1.03,0.923,1.071   c0.044,0.004,4.45,0.368,7.228,3.688c1.816,2.172,2.543,5.147,2.16,8.845C491.572,15.079,491.972,15.571,492.521,15.628z"/><path d="M645.843,96.72c-0.578-0.013-1.008,0.427-1.021,0.979c-0.012,0.552,0.427,1.009,0.979,1.021   c0.027,0,2.823,0.081,4.636,2.057c1.158,1.262,1.671,3.057,1.523,5.335c-0.035,0.551,0.382,1.026,0.934,1.063   c0.021,0.001,0.044,0.002,0.065,0.002c0.522,0,0.963-0.406,0.997-0.936c0.184-2.843-0.505-5.137-2.046-6.816   C649.527,96.827,645.992,96.723,645.843,96.72z"/><path d="M648.195,91.299c-0.553-0.045-1.028,0.371-1.07,0.921s0.37,1.029,0.92,1.073c0.044,0.004,4.483,0.391,7.242,3.703   c1.807,2.17,2.529,5.141,2.147,8.829c-0.057,0.549,0.343,1.04,0.893,1.098c0.034,0.003,0.069,0.005,0.104,0.005   c0.506,0,0.94-0.383,0.994-0.897c0.44-4.254-0.44-7.73-2.616-10.332C653.494,91.737,648.41,91.315,648.195,91.299z"/><path d="M461.863,184.739c-0.028-0.003-2.846-0.271-4.521-2.342c-1.073-1.327-1.475-3.145-1.194-5.401   c0.068-0.548-0.32-1.047-0.869-1.115c-0.55-0.074-1.048,0.32-1.115,0.869c-0.352,2.827,0.199,5.156,1.64,6.925   c2.226,2.733,5.749,3.045,5.897,3.058c0.027,0.002,0.055,0.003,0.081,0.003c0.515,0,0.95-0.395,0.994-0.917   C462.821,185.269,462.412,184.786,461.863,184.739z"/><path d="M459.301,190.023c-0.045-0.006-4.453-0.654-7.012-4.124c-1.676-2.273-2.222-5.281-1.622-8.94   c0.089-0.545-0.28-1.059-0.826-1.148c-0.547-0.091-1.059,0.279-1.148,0.826c-0.69,4.221-0.018,7.743,2.001,10.469   c3.074,4.15,8.125,4.872,8.339,4.9c0.045,0.006,0.09,0.009,0.134,0.009c0.492,0,0.92-0.363,0.988-0.865   C460.229,190.603,459.847,190.099,459.301,190.023z"/><path d="M155.43,184.739c-0.028-0.003-2.846-0.271-4.521-2.342c-1.073-1.327-1.476-3.144-1.194-5.4   c0.068-0.549-0.32-1.048-0.868-1.116c-0.552-0.074-1.049,0.32-1.116,0.868c-0.353,2.827,0.199,5.157,1.639,6.926   c2.226,2.733,5.749,3.045,5.897,3.058c0.027,0.002,0.055,0.003,0.081,0.003c0.515,0,0.95-0.395,0.994-0.917   C156.388,185.269,155.979,184.786,155.43,184.739z"/><path d="M152.864,190.023c-0.044-0.006-4.42-0.63-6.996-4.108c-1.685-2.274-2.234-5.288-1.634-8.956   c0.089-0.545-0.28-1.059-0.826-1.148c-0.55-0.091-1.059,0.279-1.148,0.826c-0.69,4.221-0.018,7.743,2.001,10.469   c3.074,4.15,8.124,4.872,8.338,4.9c0.045,0.006,0.09,0.009,0.134,0.009c0.493,0,0.923-0.364,0.99-0.867   C153.796,190.6,153.412,190.096,152.864,190.023z"/></g></svg>